<?xml version="1.0" standalone="no"?>
<!DOCTYPE svg PUBLIC "-//W3C//DTD SVG 20010904//EN"
 "http://www.w3.org/TR/2001/REC-SVG-20010904/DTD/svg10.dtd">
<svg version="1.0" xmlns="http://www.w3.org/2000/svg"
 width="114.000000pt" height="104.000000pt" viewBox="0 0 114.000000 104.000000"
 preserveAspectRatio="xMidYMid meet">

<g transform="translate(0.000000,104.000000) scale(0.100000,-0.100000)"
fill="#000000" stroke="none">
<path d="M500 910 c-204 -43 -347 -250 -311 -452 38 -218 243 -366 453 -329
251 44 397 297 308 533 -38 102 -135 197 -238 233 -57 19 -156 26 -212 15z
m232 -62 c72 -33 142 -103 176 -176 23 -49 27 -70 27 -152 0 -82 -4 -103 -27
-152 -34 -73 -103 -142 -176 -176 -83 -39 -221 -39 -304 0 -73 34 -142 103
-176 176 -23 49 -27 70 -27 152 0 77 4 104 22 143 45 98 116 163 216 199 75
27 193 21 269 -14z"/>
<path d="M310 520 l0 -170 90 0 c56 0 104 5 125 14 60 25 73 84 29 135 -24 29
-24 32 -10 53 23 32 20 94 -4 118 -17 17 -33 20 -125 20 l-105 0 0 -170z m181
111 c20 -16 22 -23 14 -47 -10 -28 -14 -29 -78 -32 l-67 -3 0 44 c0 24 3 47 7
50 15 15 101 7 124 -12z m17 -143 c17 -17 15 -54 -4 -73 -12 -12 -32 -15 -78
-13 l-61 3 -3 48 -3 47 68 0 c40 0 74 -5 81 -12z"/>
<path d="M600 670 c0 -18 7 -20 55 -20 l55 0 0 -150 0 -150 30 0 30 0 0 150 0
150 55 0 c48 0 55 2 55 20 0 19 -7 20 -140 20 -133 0 -140 -1 -140 -20z"/>
</g>
</svg>
